<svg xmlns="http://www.w3.org/2000/svg" viewBox="0 0 155 155"><defs><style>.cls-1{fill:#fff;opacity:0.8;}</style></defs><g id="レイヤー_2" data-name="レイヤー 2"><g id="レイヤー_1-2" data-name="レイヤー 1"><rect class="cls-1" width="155" height="155"/><path d="M34.58,85.94V87.3A3.4,3.4,0,0,0,33.27,87a1.27,1.27,0,0,0-.68.16.71.71,0,0,0-.34.38,5,5,0,0,0-.07,1.14v1.47h2.26v1.21H32.18V101h-1.4V91.34H29.34V90.13h1.43v-1.7A4.64,4.64,0,0,1,31,86.77a1.78,1.78,0,0,1,.73-.81,2.46,2.46,0,0,1,1.25-.3A5.73,5.73,0,0,1,34.58,85.94Z"/><path d="M36.32,85.94h1.4v15h-1.4Z"/><path d="M49.77,97.39l1.17.62a6.24,6.24,0,0,1-1.34,1.83,5.12,5.12,0,0,1-1.7,1.06,5.84,5.84,0,0,1-2.15.37,5.2,5.2,0,0,1-4.16-1.74,5.88,5.88,0,0,1-1.5-3.94,5.81,5.81,0,0,1,1.27-3.68,5.2,5.2,0,0,1,4.31-2.06A5.33,5.33,0,0,1,50.1,92a5.83,5.83,0,0,1,1.2,3.71H41.53a4.44,4.44,0,0,0,1.21,3.1A3.84,3.84,0,0,0,45.63,100a4.45,4.45,0,0,0,1.61-.29,4.15,4.15,0,0,0,1.34-.76A6.81,6.81,0,0,0,49.77,97.39Zm0-2.93A4.72,4.72,0,0,0,49,92.67a3.94,3.94,0,0,0-1.41-1.07,4.26,4.26,0,0,0-1.85-.41,4,4,0,0,0-2.75,1,4.6,4.6,0,0,0-1.27,2.24Z"/><path d="M52.67,90.13h1.68l2.89,4,2.85-4h1.68l-3.69,5.13L62.24,101h-1.7l-3.3-4.56L54,101H52.28l4.12-5.72Z"/><path d="M70.92,89.85a1.19,1.19,0,0,1,.87.36,1.23,1.23,0,0,1,.36.88,1.25,1.25,0,0,1-.36.88,1.23,1.23,0,0,1-1.74,0,1.21,1.21,0,0,1-.36-.88,1.22,1.22,0,0,1,.36-.88A1.19,1.19,0,0,1,70.92,89.85Zm0,8.94a1.19,1.19,0,0,1,.87.36,1.25,1.25,0,0,1,.36.88,1.23,1.23,0,0,1-.36.87,1.21,1.21,0,0,1-1.74,0,1.19,1.19,0,0,1-.36-.87,1.21,1.21,0,0,1,.36-.88A1.19,1.19,0,0,1,70.92,98.79Z"/><path d="M80.17,90.13H81.6v1.59A4.82,4.82,0,0,1,83,90.31a2.63,2.63,0,0,1,1.47-.46,2.51,2.51,0,0,1,1.24.37l-.73,1.18a1.87,1.87,0,0,0-.74-.19,2,2,0,0,0-1.34.57,3.53,3.53,0,0,0-1,1.78,16.67,16.67,0,0,0-.26,3.76V101H80.17Z"/><path d="M92,89.85a5.39,5.39,0,0,1,4.16,1.82,5.82,5.82,0,0,1-.09,7.9,5.75,5.75,0,0,1-8.16,0,5.82,5.82,0,0,1-.08-7.89A5.37,5.37,0,0,1,92,89.85Zm0,1.37a4,4,0,0,0-3,1.29,4.25,4.25,0,0,0-1.25,3.11,4.46,4.46,0,0,0,.57,2.2,4.08,4.08,0,0,0,1.54,1.57,4.42,4.42,0,0,0,4.27,0,4.08,4.08,0,0,0,1.54-1.57,4.46,4.46,0,0,0,.57-2.2A4.26,4.26,0,0,0,95,92.51,4,4,0,0,0,92,91.22Z"/><path d="M98.77,90.13h1.43L103.53,98,107,90.13h.25L110.74,98l3.39-7.89h1.46L110.87,101h-.26l-3.47-7.78L103.67,101h-.26Z"/><path d="M124.27,98.29l1.35.64-2,3.78-1-.42Zm.16-8.44a1.23,1.23,0,0,1,1.23,1.24,1.21,1.21,0,0,1-.36.88,1.23,1.23,0,0,1-1.74,0,1.21,1.21,0,0,1-.36-.88,1.22,1.22,0,0,1,.36-.88A1.19,1.19,0,0,1,124.43,89.85Z"/><polygon points="136.56 51.06 134.44 53.18 140.26 59 9.25 59 9.25 62 139.76 62 134.44 67.32 136.56 69.44 145.75 60.25 136.56 51.06"/></g></g></svg>