<svg xmlns="http://www.w3.org/2000/svg" viewBox="0 0 155 155"><defs><style>.cls-1{fill:#fff;opacity:0.8;}</style></defs><g id="レイヤー_2" data-name="レイヤー 2"><g id="レイヤー_1-2" data-name="レイヤー 1"><rect class="cls-1" width="155" height="155"/><path d="M15.46,68.3v1.36a3.63,3.63,0,0,0-1.32-.33,1.29,1.29,0,0,0-.68.17.76.76,0,0,0-.34.38A5.67,5.67,0,0,0,13.05,71v1.47h2.27V73.7H13.05v9.65H11.65V73.7H10.22V72.49h1.43v-1.7a4.74,4.74,0,0,1,.21-1.67,1.75,1.75,0,0,1,.73-.8,2.42,2.42,0,0,1,1.24-.3A5.79,5.79,0,0,1,15.46,68.3Z"/><path d="M17.2,68.3h1.39v15H17.2Z"/><path d="M30.64,79.75l1.18.62a6.43,6.43,0,0,1-1.34,1.83,5.26,5.26,0,0,1-1.71,1.06,5.81,5.81,0,0,1-2.15.37,5.18,5.18,0,0,1-4.15-1.74A5.88,5.88,0,0,1,21,78a5.75,5.75,0,0,1,1.27-3.68,5.19,5.19,0,0,1,4.3-2.06A5.35,5.35,0,0,1,31,74.32,5.87,5.87,0,0,1,32.18,78H22.41a4.39,4.39,0,0,0,1.21,3.1,3.82,3.82,0,0,0,2.88,1.21,4.5,4.5,0,0,0,1.62-.29,4.21,4.21,0,0,0,1.33-.76A6.53,6.53,0,0,0,30.64,79.75Zm0-2.93A4.75,4.75,0,0,0,29.83,75,3.8,3.8,0,0,0,28.41,74a4.2,4.2,0,0,0-1.85-.41,4,4,0,0,0-2.75,1,4.59,4.59,0,0,0-1.26,2.24Z"/><path d="M33.55,72.49h1.67l2.89,4,2.86-4h1.68L39,77.62l4.17,5.73h-1.7l-3.31-4.56-3.29,4.56H33.16l4.11-5.72Z"/><path d="M51.79,72.21A1.23,1.23,0,0,1,53,73.45a1.21,1.21,0,0,1-.36.88,1.23,1.23,0,0,1-1.74,0,1.21,1.21,0,0,1-.36-.88,1.22,1.22,0,0,1,.36-.88A1.19,1.19,0,0,1,51.79,72.21Zm0,8.94a1.24,1.24,0,0,1,.87,2.11,1.21,1.21,0,0,1-1.74,0,1.24,1.24,0,0,1,.87-2.11Z"/><path d="M72.12,74.75,71,75.43a4.65,4.65,0,0,0-3.92-1.9,4.56,4.56,0,0,0-3.3,1.27,4.19,4.19,0,0,0-1.31,3.1,4.34,4.34,0,0,0,.61,2.24,4.15,4.15,0,0,0,1.65,1.62A5,5,0,0,0,71,80.44l1.11.72A5.16,5.16,0,0,1,70,83a6.67,6.67,0,0,1-3,.65A5.92,5.92,0,0,1,62.76,82a5.33,5.33,0,0,1-1.7-4,5.69,5.69,0,0,1,.8-2.93A5.53,5.53,0,0,1,64,73a6.3,6.3,0,0,1,3.1-.76,6.67,6.67,0,0,1,2.09.33,5.77,5.77,0,0,1,1.7.86A4.74,4.74,0,0,1,72.12,74.75Z"/><path d="M79.94,72.21A5.39,5.39,0,0,1,84.1,74a5.84,5.84,0,0,1-.08,7.9,5.75,5.75,0,0,1-8.16,0A5.81,5.81,0,0,1,75.77,74,5.37,5.37,0,0,1,79.94,72.21Zm0,1.37a4,4,0,0,0-3,1.29A4.29,4.29,0,0,0,75.69,78a4.46,4.46,0,0,0,.57,2.2,4.08,4.08,0,0,0,1.54,1.57,4.42,4.42,0,0,0,4.27,0,4.08,4.08,0,0,0,1.54-1.57,4.46,4.46,0,0,0,.57-2.2,4.29,4.29,0,0,0-1.25-3.11A4,4,0,0,0,79.94,73.58Z"/><path d="M88,68.3h1.39v15H88Z"/><path d="M92.1,72.49h1.4v5.07a10.52,10.52,0,0,0,.2,2.56,2.84,2.84,0,0,0,1.14,1.57,3.46,3.46,0,0,0,2,.58,3.42,3.42,0,0,0,2-.56A2.86,2.86,0,0,0,100,80.22a10.35,10.35,0,0,0,.21-2.66V72.49h1.43v5.33a8.37,8.37,0,0,1-.52,3.38A4,4,0,0,1,99.5,83a5.06,5.06,0,0,1-2.64.64A5.12,5.12,0,0,1,94.21,83a4,4,0,0,1-1.59-1.8,8.8,8.8,0,0,1-.52-3.47Z"/><path d="M104.7,72.49h1.39v1.88a5.42,5.42,0,0,1,1.5-1.52,4.23,4.23,0,0,1,2.23-.64,3.63,3.63,0,0,1,1.5.31,3.33,3.33,0,0,1,1.16.82,4.57,4.57,0,0,1,.78,1.47A5.15,5.15,0,0,1,115,72.87a4.15,4.15,0,0,1,2.25-.66,3.52,3.52,0,0,1,2,.57,3.43,3.43,0,0,1,1.28,1.59,8.37,8.37,0,0,1,.42,3v5.93h-1.43V77.42a7.64,7.64,0,0,0-.25-2.4,2.14,2.14,0,0,0-.85-1,2.51,2.51,0,0,0-1.44-.4,3.12,3.12,0,0,0-1.85.6,3.47,3.47,0,0,0-1.23,1.59,10.12,10.12,0,0,0-.39,3.34v4.25h-1.4V77.79a9.72,9.72,0,0,0-.24-2.67A2.2,2.2,0,0,0,111,74a2.45,2.45,0,0,0-1.44-.42,3.09,3.09,0,0,0-1.81.58,3.41,3.41,0,0,0-1.25,1.57,8.47,8.47,0,0,0-.41,3v4.6H104.7Z"/><path d="M123.88,72.49h1.4v2a5.83,5.83,0,0,1,1.86-1.68,4.5,4.5,0,0,1,2.21-.55,3.88,3.88,0,0,1,2.16.62,3.69,3.69,0,0,1,1.4,1.67,9,9,0,0,1,.44,3.26v5.59H132V78.17a13,13,0,0,0-.16-2.51,2.75,2.75,0,0,0-.93-1.62,2.84,2.84,0,0,0-1.8-.54,3.45,3.45,0,0,0-2.27.84,3.87,3.87,0,0,0-1.32,2.07,14.74,14.74,0,0,0-.2,3v4h-1.4Z"/><path d="M143.39,80.65l1.35.64-2,3.78-1-.42Zm.16-8.44a1.23,1.23,0,0,1,1.23,1.24,1.21,1.21,0,0,1-.36.88,1.19,1.19,0,0,1-.87.36,1.16,1.16,0,0,1-.86-.36,1.21,1.21,0,0,1-.36-.88,1.22,1.22,0,0,1,.36-.88A1.16,1.16,0,0,1,143.55,72.21Z"/><rect x="76.31" y="10" width="3" height="50"/><polygon points="84.57 134.75 78.75 140.57 78.75 94.5 75.75 94.5 75.75 140.07 70.43 134.75 68.31 136.87 77.5 146.06 86.69 136.87 84.57 134.75"/></g></g></svg>